# Blender v2.81 (sub 16) OBJ File: ''
# www.blender.org
mtllib seed.mtl
o Cube
v 0.239171 0.076685 -0.500000
v 0.239171 -0.076685 -0.500000
v 0.239171 0.076685 0.500000
v 0.239171 -0.076685 0.500000
v -0.239171 0.076685 -0.500000
v -0.239171 -0.076685 -0.500000
v -0.239171 0.076685 0.500000
v -0.239171 -0.076685 0.500000
v -0.291581 -0.093490 -0.000000
v 0.000000 -0.093490 -0.609568
v 0.291581 0.000000 -0.609568
v -0.291581 -0.000000 0.609568
v 0.291581 0.000000 0.609568
v -0.291581 -0.000000 -0.609568
v -0.000000 0.062728 0.609568
v 0.291581 0.093490 0.000000
v -0.000000 -0.093490 0.609568
v -0.291581 0.093490 -0.000000
v 0.000000 0.062728 -0.609568
v 0.291581 -0.093490 0.000000
v -0.000000 0.097994 -0.000000
v 0.000000 0.000000 0.839506
v -0.401570 0.000000 -0.000000
v 0.000000 -0.128755 0.000000
v 0.401570 0.000000 -0.000000
v 0.000000 0.000000 -0.839506
v 0.012888 -0.092584 -0.603664
v 0.012888 0.092584 0.603664
v 0.012888 -0.092584 0.603664
v 0.012888 0.092584 -0.603664
v 0.015712 0.126855 -0.000000
v 0.015712 0.000000 0.827116
v 0.015712 -0.126855 0.000000
v 0.015712 0.000000 -0.827116
v -0.018043 -0.092222 -0.601302
v -0.018043 0.092222 0.601302
v -0.018043 -0.092222 0.601302
v -0.018043 0.092222 -0.601302
v -0.021997 0.126095 -0.000000
v -0.021997 0.000000 0.822160
v -0.021997 -0.126095 0.000000
v -0.021997 0.000000 -0.822160
vt 0.750437 0.492827
vt 0.755208 0.494792
vt 0.751736 0.625000
vt 0.745281 0.625000
vt 0.764245 0.495185
vt 0.875000 0.500000
vt 0.875000 0.625000
vt 0.761035 0.625000
vt 0.875000 0.750000
vt 0.764245 0.754816
vt 0.755208 0.755208
vt 0.750437 0.757173
vt 0.367827 0.875437
vt 0.500000 0.870281
vt 0.500000 0.876736
vt 0.369792 0.880208
vt 0.632173 0.875437
vt 0.630208 0.880208
vt 0.500000 0.886035
vt 0.629816 0.889245
vt 0.625000 1.000000
vt 0.500000 1.000000
vt 0.370185 0.889245
vt 0.375000 1.000000
vt 0.375000 0.000000
vt 0.500000 0.000000
vt 0.500000 0.125000
vt 0.375000 0.125000
vt 0.625000 0.000000
vt 0.625000 0.125000
vt 0.625000 0.250000
vt 0.500000 0.250000
vt 0.375000 0.250000
vt 0.235755 0.495185
vt 0.244792 0.494792
vt 0.248264 0.625000
vt 0.238965 0.625000
vt 0.249563 0.492827
vt 0.333333 0.458333
vt 0.368056 0.625000
vt 0.254719 0.625000
vt 0.333333 0.791667
vt 0.249563 0.757173
vt 0.244792 0.755208
vt 0.235755 0.754815
vt 0.500000 0.493056
vt 0.500000 0.625000
vt 0.666667 0.458333
vt 0.631945 0.625000
vt 0.666667 0.791667
vt 0.500000 0.756944
vt 0.370185 0.360755
vt 0.500000 0.363965
vt 0.500000 0.373264
vt 0.369792 0.369792
vt 0.629815 0.360755
vt 0.630208 0.369792
vt 0.500000 0.379719
vt 0.632173 0.374563
vt 0.367827 0.374563
vt 0.125000 0.625000
vt 0.125000 0.750000
vt 0.125000 0.500000
vn -0.3313 0.9134 -0.2365
vn -0.1026 0.9623 -0.2517
vn -0.0807 0.9967 0.0000
vn -0.4729 0.8811 0.0000
vn 0.2570 0.9377 -0.2335
vn -0.3993 0.8999 -0.1751
vn -0.4339 0.9009 0.0000
vn 0.4048 0.9144 0.0000
vn -0.3993 0.8999 0.1751
vn 0.2570 0.9377 0.2335
vn -0.1026 0.9623 0.2517
vn -0.3313 0.9134 0.2365
vn 0.1950 -0.9548 0.2241
vn -0.0988 -0.1476 0.9841
vn -0.1316 -0.1838 0.9741
vn -0.0001 -0.9655 0.2604
vn -0.0788 -0.0424 0.9960
vn -0.7997 0.0000 0.6004
vn -0.1953 -0.9547 0.2244
vn -0.3993 -0.8999 0.1751
vn -1.0000 0.0000 0.0000
vn -0.4339 -0.9009 0.0000
vn -0.7997 0.0000 -0.6004
vn -0.3993 -0.8999 -0.1751
vn -0.1953 -0.9547 -0.2244
vn -0.0001 -0.9655 -0.2604
vn 0.0000 -1.0000 0.0000
vn -0.1087 -0.9940 0.0000
vn 0.1950 -0.9548 -0.2241
vn 0.3991 -0.9001 -0.1748
vn 0.4339 -0.9009 0.0000
vn 0.1087 -0.9940 0.0000
vn 0.3991 -0.9001 0.1748
vn 0.8000 0.0000 -0.6000
vn 1.0000 0.0000 0.0000
vn 0.3991 0.9001 -0.1748
vn 0.4339 0.9009 0.0000
vn 0.3991 0.9001 0.1748
vn 0.8000 0.0000 0.6000
vn -0.0788 -0.0424 -0.9960
vn -0.1316 -0.1838 -0.9741
vn -0.0988 -0.1476 -0.9841
usemtl Material
s 1
f 30/1/1 19/2/2 21/3/3 31/4/4
f 38/5/5 5/6/6 18/7/7 39/8/8
f 39/8/8 18/7/7 7/9/9 36/10/10
f 31/4/4 21/3/3 15/11/11 28/12/12
f 29/13/13 32/14/14 22/15/15 17/16/16
f 32/14/14 28/17/12 15/18/11 22/15/15
f 40/19/17 36/20/10 7/21/9 12/22/18
f 37/23/19 40/19/17 12/22/18 8/24/20
f 8/25/20 12/26/18 23/27/21 9/28/22
f 12/26/18 7/29/9 18/30/7 23/27/21
f 23/27/21 18/30/7 5/31/6 14/32/23
f 9/28/22 23/27/21 14/32/23 6/33/24
f 35/34/25 10/35/26 24/36/27 41/37/28
f 27/38/29 2/39/30 20/40/31 33/41/32
f 33/41/32 20/40/31 4/42/33 29/43/13
f 41/37/28 24/36/27 17/44/16 37/45/19
f 2/39/30 11/46/34 25/47/35 20/40/31
f 11/46/34 1/48/36 16/49/37 25/47/35
f 25/47/35 16/49/37 3/50/38 13/51/39
f 20/40/31 25/47/35 13/51/39 4/42/33
f 35/52/25 42/53/40 26/54/41 10/55/26
f 42/53/40 38/56/5 19/57/2 26/54/41
f 34/58/42 30/59/1 1/48/36 11/46/34
f 27/60/29 34/58/42 11/46/34 2/39/30
f 10/55/26 26/54/41 34/58/42 27/60/29
f 26/54/41 19/57/2 30/59/1 34/58/42
f 24/36/27 33/41/32 29/43/13 17/44/16
f 10/35/26 27/38/29 33/41/32 24/36/27
f 13/51/39 3/50/38 28/17/12 32/14/14
f 4/42/33 13/51/39 32/14/14 29/13/13
f 16/49/37 31/4/4 28/12/12 3/50/38
f 1/48/36 30/1/1 31/4/4 16/49/37
f 14/32/23 5/31/6 38/56/5 42/53/40
f 6/33/24 14/32/23 42/53/40 35/52/25
f 9/61/22 41/37/28 37/45/19 8/62/20
f 6/63/24 35/34/25 41/37/28 9/61/22
f 17/16/16 22/15/15 40/19/17 37/23/19
f 22/15/15 15/18/11 36/20/10 40/19/17
f 21/3/3 39/8/8 36/10/10 15/11/11
f 19/2/2 38/5/5 39/8/8 21/3/3
